<?xml version="1.0" encoding="utf-8"?>
<!-- Generator: Adobe Illustrator 22.0.0, SVG Export Plug-In . SVG Version: 6.00 Build 0)  -->
<svg version="1.1" id="Layer_1" xmlns="http://www.w3.org/2000/svg" xmlns:xlink="http://www.w3.org/1999/xlink" x="0px" y="0px"
	 viewBox="0 0 600 792" style="enable-background:new 0 0 600 792;" xml:space="preserve">
<style type="text/css">
	.st0{fill:none;stroke:#000000;stroke-miterlimit:10;}
	.st1{fill:#FFFFFF;stroke:#000000;stroke-miterlimit:10;}
	.st2{fill:#0000FF;stroke:#000000;stroke-width:4;stroke-miterlimit:10;}
	.st3{fill:none;stroke:#000000;stroke-width:4;stroke-miterlimit:10;}
	.st4{fill:#FFFFFF;stroke:#000000;stroke-width:4;stroke-miterlimit:10;}
	.st5{stroke:#000000;stroke-miterlimit:10;}
	.st6{fill:none;}
	.st7{font-family:'BernardMT-Condensed';}
	.st8{font-size:11.5517px;}
</style>
<g>
	<path d="M563.4,529c0,10.6-0.1,21.1-0.2,31.7c-0.2,10.6-0.5,21.3-0.9,32.2c-0.4,11.1-1,22.3-1.9,35.3c-0.5,6.5-1.1,13.4-2.3,21
		c-0.3,1.9-0.6,3.9-1,5.8c-0.4,2-0.8,4-1.2,6c-1,4.1-2,8.2-3.4,12.3c-2.7,8.2-6.4,16.3-10.5,23.3c-2.1,3.5-4.2,6.8-6.4,9.9
		c-2.2,3.1-4.5,5.9-6.8,8.8c-9.2,11.4-19.7,21.6-31.3,29.4c-11.6,7.9-24.3,13.4-37,17.1c-3.2,0.9-6.4,1.6-9.5,2.4
		c-1.6,0.4-3.2,0.6-4.8,0.9l-4.8,0.8c-6.3,1-12.6,1.7-18.9,2.1c-12.4,0.9-24.5,1.1-36.2,1.6c-11.7,0.5-23.1,1.4-34.5,1.8
		c-11.4,0.5-22.7,0.8-34,1c-11.3,0.2-22.6,0.4-33.8,0.5c-11.3,0.1-22.5,0-33.7-0.2c-11.2-0.2-22.5-0.5-33.7-1.3
		c-5.6-0.4-11.2-1-16.8-1.6c-5.6-0.6-11.2-1.6-16.7-2.7c-11.1-2.2-22-4.5-33.3-5.5c-5.6-0.5-11.4-0.6-17.1-1
		c-5.7-0.4-11.4-1.3-16.9-3c-11-3.2-21.8-7.3-32-12.9c-10.2-5.5-19.8-12.6-27.8-21.2c-4-4.3-7.5-9.1-10.5-14.2
		c-0.7-1.3-1.4-2.6-2.1-3.9c-0.6-1.3-1.3-2.6-1.8-4l-0.8-2c-0.3-0.7-0.5-1.5-0.7-2.2c-0.2-0.7-0.4-1.5-0.5-2.2
		c-0.2-0.7-0.2-1.5-0.3-2.2c-0.3-3-0.3-5.9-0.5-8.7c-0.2-2.8-0.5-5.6-0.7-8.5c-0.5-5.6-1.2-11.2-1.5-16.8
		c-0.5-11.2-0.8-22.4-1.1-33.6c-0.6-22.4-0.7-44.9-0.1-67.4c0.3-11.2,0.7-22.5,1.3-33.7c0.3-5.6,0.7-11.2,1.1-16.8l1.1-16.8
		c1.5-22.4,3-44.7,4.3-67.1c1.4-22.4,2.6-44.7,3.9-67.1c0.3-5.6,0.7-11.2,1.1-16.8c0.4-5.6,0.9-11.2,1.4-16.8
		c1-11.2,2.1-22.4,3.6-33.6c1.5-11.2,3.3-22.3,5.4-33.4c2.1-11.1,4.5-22.1,7.2-33c2.7-10.9,5.7-21.8,9-32.6c3.3-10.8,7-21.4,11-32
		c2-5.3,4.1-10.5,6.2-15.7c2.1-5.2,4.2-10.4,6.2-15.6c1.9-5.2,3.7-10.5,4.7-15.8c0.5-2.7,0.8-5.4,1-8.1c0.1-2.8,0.4-5.8,1.1-8.6
		c1.3-5.7,4.1-11.2,8-15.6c3.9-4.5,9-8,14-10.6c5-2.6,10-5.3,15-8l15.3-7.5c20.5-9.8,42-17.9,64-24.4c11-3.3,22.2-6,33.6-8.4
		c5.7-1.2,11.4-2.2,17.2-3.2c2.9-0.5,5.8-0.9,8.8-1.2c1.5-0.2,2.9-0.4,4.5-0.5l2.3-0.2l2.3-0.2l4.6-0.3c1.4-0.1,2.9-0.2,4.3-0.2
		c2.9-0.1,5.8-0.3,8.7-0.3c5.8-0.2,11.7-0.2,17.6-0.1c11.8,0.1,23.6,0.9,35.4,2.2l8.9,1c3,0.4,5.9,0.9,8.8,1.3
		c5.9,0.8,11.8,2.1,17.7,3.3c3,0.5,5.9,1.3,8.8,2l8.8,2.1l8.7,2.4l4.4,1.2c1.5,0.4,2.9,0.8,4.4,1.3l8.7,2.8c2.9,0.9,5.8,1.8,8.7,2.9
		l8.6,3.2l4.3,1.6c1.4,0.5,2.8,1.2,4.3,1.8l8.5,3.6l4.3,1.8c1.4,0.6,2.8,1.3,4.2,2l8.4,4.1l4.2,2l2,1l1.9,0.9
		c5.1,2.5,10.2,5.1,15.8,8.2c2.8,1.6,5.7,3.2,8.7,5.1c3,1.9,6.1,4,9.3,6.4c3.1,2.3,6.2,4.9,9,7.5c0.7,0.6,1.5,1.3,2.1,2l2,1.9
		c1.3,1.3,2.6,2.6,3.9,3.9c2.6,2.7,5.1,5.5,7.5,8.4c1.2,1.5,2.4,3,3.6,4.5c1.1,1.6,2.2,3.1,3.3,4.7c4.2,6.5,7.8,13.4,10.9,20.5
		c3.1,7.1,5.5,14.4,7.4,21.7c1.9,7.3,3.3,14.5,4.3,21.6c1,7.1,1.5,14,1.8,20.8c0.6,13.5,0.2,26.4-0.6,38.8
		c-0.8,12.4-2,24.3-3.3,35.9c-2.6,23.3-5.6,45.5-8.2,67.4c-2.6,21.9-4.9,43.4-6.8,64.7C565.6,444.5,563.4,486.7,563.4,529z
		 M454.9,529.8c-0.3-23.7,0.3-47.4,2.1-71c0.9-11.8,2.1-23.5,3.4-35.2c1.4-11.7,3-23.3,4.9-34.9c3.7-23.1,8.2-45.9,13.2-68.3
		c4.9-22.3,10.1-44.2,14.6-65.2c4.4-21,8-41.3,8.7-59.1c0.2-4.4,0.1-8.7-0.1-12.8c-0.2-4.1-0.7-7.9-1.3-11.6
		c-1.4-7.3-3.4-13.7-6.4-20.1c-1.4-3.2-2.9-6.6-4.8-9.9c-0.4-0.8-1-1.7-1.5-2.5l-0.8-1.3l-0.7-1.1c-1-1.5-1.9-2.8-3-4.2
		c-1.1-1.4-2.3-2.8-3.7-4.3c-1.4-1.5-3.1-3.1-4.9-4.8c-3.6-3.3-7.8-6.9-12.1-10.5l-1.6-1.4l-1.6-1.3l-2.9-2.4l-5.9-4.8
		c-1-0.8-2-1.6-3-2.4l-3.1-2.2l-6.2-4.5c-1-0.7-2.1-1.5-3.1-2.2l-3.2-2.1l-6.5-4.1c-2.2-1.4-4.4-2.6-6.7-3.9l-6.8-3.7
		c-4.6-2.4-9.3-4.6-14-6.8l-7.2-3c-2.4-1-4.8-2.1-7.3-2.9c-4.9-1.8-9.8-3.7-14.9-5.2c-2.5-0.8-5-1.7-7.5-2.4l-7.6-2.1
		c-10.2-2.7-20.6-5.2-31.2-6.9c-5.3-0.9-10.6-1.7-15.9-2.4c-2.7-0.4-5.4-0.6-8.1-1l-7.9-0.8l-1.9-0.1l-1.9-0.1
		c-1.3-0.1-2.6-0.1-3.9-0.1c-2.6-0.1-5.3-0.1-8-0.1c-5.4,0-10.8,0.1-16.2,0.4c-10.8,0.6-21.8,1.6-32.6,3.1
		c-21.7,3-43.4,7.6-64.7,14.1c-5.3,1.8-10.5,3.5-15.8,5.3c-5.2,2-10.4,4-15.6,6.1c-2.6,1-5,2.1-7.2,3.5c-2.3,1.4-4.4,2.9-6.3,4.8
		c-1.9,1.8-3.6,3.9-5,6.2c-1.3,2.3-2.4,4.7-3.1,7.3c-0.7,2.6-1,5.2-1.1,8c-0.2,2.9-0.4,5.7-0.9,8.5c-0.9,5.7-2.5,11.1-4.3,16.5
		c-3.6,10.7-7.8,21.1-11.3,31.7c-3.5,10.6-6.6,21.3-9.3,32.1c-2.7,10.8-5.2,21.7-7.3,32.6c-4.4,21.9-8,43.9-10.9,65.9
		c-2.9,22.1-4.7,44.3-6.2,66.6l-2.1,33.6l-2.4,33.6c-1.7,22.4-3.5,44.7-5.5,67.1l-1.5,16.8c-0.5,5.6-1,11.1-1.4,16.7
		c-0.8,11.1-1.5,22.3-2,33.5c-1,22.3-1.4,44.7-1.2,67.1c0.1,11.2,0.2,22.4,0.4,33.6c0.1,5.6-0.1,11.2,0.2,16.7
		c0.2,2.8,0.4,5.5,0.9,8.3c0.5,2.7,1.4,5.4,2.4,7.9c0.2,0.6,0.5,1.3,0.7,1.8c0.3,0.6,0.5,1.2,0.7,1.8c0.3,0.6,0.5,1.1,0.8,1.7
		l0.9,1.8c0.6,1.2,1.3,2.3,1.9,3.5c0.7,1.1,1.4,2.3,2.1,3.4c3,4.4,6.5,8.4,10.4,12c7.9,7.2,17,13,26.7,17.7
		c9.7,4.8,19.8,8.8,30.2,12.3c5.2,1.7,10.3,3.7,15.5,6c5.1,2.3,10.4,4.6,15.7,6.2c10.8,3.1,22,4.1,33.2,4.4
		c5.6,0.2,11.2,0.3,16.8,0.5c5.6,0.3,11.2,0.4,16.7,0.6c11.2,0.3,22.3,0.5,33.5,0.7c11.2,0.2,22.4,0.4,33.5,0.2
		c11.2-0.2,22.3-0.7,33.4-1.8c11.1-1.1,22.1-2.8,32.9-5.2c2.7-0.6,5.4-1.2,8.1-1.9l8-2.2c2.6-0.8,5.3-1.6,7.9-2.5
		c2.6-0.9,5.2-2,7.7-3c10.2-4.3,19.8-10,28.5-16.4c4.4-3.2,8.5-6.7,12.5-10.1c1.9-1.8,3.9-3.5,5.8-5.2c1.8-1.8,3.6-3.5,5.5-5.2
		c7.1-7,13.2-13.9,18.6-20.6c5.4-6.7,10.2-13.1,13.8-20.2l1.3-2.6c0.2-0.4,0.4-0.9,0.6-1.3l0.5-1.3c0.7-1.7,1.2-3.4,1.6-4.9
		c0.8-3.1,1-5.6,0.9-8.3c-0.1-2.6-0.4-5.5-1-9.1c-0.6-3.6-1.4-7.9-2.3-12.6c-1.9-9.4-4.4-20.5-6.4-31.8c-2.1-11.4-3.8-23.1-4.9-34.9
		C455.7,553.5,455,541.7,454.9,529.8z"/>
</g>
<path class="st0" d="M532,3.7"/>
<path class="st1" d="M541,409c19.5-66.2,23.7-122,24-160c0.4-59.1-0.1-98.3-26-136c-24.5-35.7-59.1-50.7-86-62
	C353.9,9.2,255.4,31.6,255.4,32c0,0.3,41.2-4.7,99.1,4.7c4.8,0.8,27.7,5.2,57.7,13.3c40.7,11,54.3,18,64.9,25
	c4.8,3.2,29,19.6,48.6,51c33.1,53.3,29.3,111.3,27.4,129c-8.2,77.3-55.6,122.9-36.3,145.2C523.1,407.7,534,408.9,541,409z"/>
<path class="st0" d="M558.6,329.9c-7.2,38.4-14.4,76.8-21.6,115.1"/>
<path class="st1" d="M703,253"/>
<path class="st1" d="M361-69"/>
<path class="st1" d="M293,117"/>
<path class="st2" d="M177,95c-12.3,24.8-28.6,61.6-42,108c-15.1,52.4-19.6,101-28,196c-5.8,65.8-10,115.3-10,184
	c0,55.9,2.9,103.5,6,140c8.7,1.3,17.3,2.7,26,4c-1.9-40.3-3.8-95.8-4-162c-0.2-63.5-0.4-108.9,4-170c5.2-72.3,9.2-125.2,28-192
	c14.1-50.2,31.3-89.9,44-116C193,89.7,185,92.3,177,95z"/>
<path class="st3" d="M815,97"/>
<path class="st3" d="M743,433"/>
<path class="st3" d="M721,1"/>
<path class="st3" d="M801-35"/>
<path class="st3" d="M685,231"/>
<path class="st4" d="M245,119"/>
<ellipse class="st5" cx="532" cy="371" rx="11" ry="19"/>
<path class="st2" d="M532,371c-10.8-4.2-58,55.6-39,84c2.3,3.5,8.7,11.1,26,14C537.2,397.2,538,373.3,532,371z"/>
<g>
	<g>
		<path d="M189,90.5c1.9,0,1.9-3,0-3C187.1,87.5,187.1,90.5,189,90.5L189,90.5z"/>
	</g>
</g>
<g>
	<g>
		<path d="M903,20.5c1.9,0,1.9-3,0-3C901.1,17.5,901.1,20.5,903,20.5L903,20.5z"/>
	</g>
</g>
<g>
	<g>
		<path d="M1089-259.5c1.9,0,1.9-3,0-3C1087.1-262.5,1087.1-259.5,1089-259.5L1089-259.5z"/>
	</g>
</g>
<g>
	<g>
		<path d="M785,160.5c1.9,0,1.9-3,0-3C783.1,157.5,783.1,160.5,785,160.5L785,160.5z"/>
	</g>
</g>
<g>
	<g>
		<path d="M817-271.5c1.9,0,1.9-3,0-3C815.1-274.5,815.1-271.5,817-271.5L817-271.5z"/>
	</g>
</g>
<g>
	<g id="Layer_1_2_">
		<g>
			<path d="M431.2,166.9c-1,3.9-2.8,7.7-5.2,11.1c-2.4,3.4-5.5,6.4-9.1,8.7c-3.6,2.3-7.8,3.9-12.1,4.6c-2.2,0.3-4.4,0.4-6.6,0.3
				c-1.1-0.1-2.2-0.2-3.3-0.3c-1.1-0.2-2.2-0.4-3.3-0.7c-2.2-0.6-4.3-1.4-6.3-2.4c-2-1-3.9-2.2-5.7-3.6c-3.6-2.7-6.6-6.1-9-9.9
				c-1.2-1.9-2.2-3.9-3.1-5.9c-0.9-2.1-1.6-4.2-2.1-6.4c-0.5-2.2-0.9-4.4-1.1-6.6c-0.1-1.1-0.1-2.3-0.1-3.4c0-1.1,0-2.2,0.1-3.3
				c0.2-2.2,0.5-4.4,1-6.6s1.2-4.3,2-6.4c1.7-4.1,4.1-8,7-11.3c1.5-1.7,3.1-3.2,4.9-4.6c1.8-1.4,3.7-2.6,5.6-3.6
				c2-1,4.1-1.8,6.2-2.4c2.2-0.6,4.4-1,6.6-1.1c2.3-0.2,4.5-0.1,6.7,0.2c1.1,0.2,2.2,0.4,3.2,0.6c1.1,0.3,2.1,0.6,3.1,1
				c2,0.8,4,1.7,5.9,2.8c1.8,1.1,3.6,2.4,5.1,3.9c3.1,2.9,5.7,6.4,7.5,10.1c1.9,3.7,3,7.7,3.5,11.7l-0.2,0
				c-1.3-3.8-3.2-7.3-5.5-10.5c-1.1-1.6-2.4-3-3.8-4.4c-1.4-1.3-2.8-2.6-4.3-3.7c-3.1-2.2-6.5-3.7-10-4.6c-0.9-0.2-1.8-0.4-2.7-0.5
				c-0.9-0.1-1.8-0.2-2.7-0.3c-1.8-0.1-3.6,0-5.3,0.3c-1.7,0.3-3.5,0.7-5.1,1.3c-1.6,0.6-3.3,1.3-4.7,2.3c-1.5,0.9-2.9,1.9-4.3,3.1
				c-1.3,1.2-2.6,2.4-3.7,3.8c-2.2,2.7-4,5.9-5.3,9.2c-0.6,1.7-1.1,3.4-1.5,5.1c-0.2,0.9-0.3,1.8-0.5,2.6c-0.1,0.9-0.2,1.8-0.3,2.7
				c-0.1,1.8-0.1,3.6,0,5.4c0.1,1.8,0.4,3.5,0.8,5.3c0.4,1.7,0.9,3.4,1.6,5.1c0.7,1.7,1.4,3.3,2.3,4.8c1.8,3.1,4.1,5.8,6.7,8.1
				s5.7,4.1,9.1,5.3c1.7,0.6,3.4,1,5.2,1.3c0.9,0.1,1.8,0.2,2.7,0.3c0.4,0,0.9,0,1.3,0h0.7l0.7,0c0.9,0,1.8-0.1,2.7-0.3
				c0.9-0.2,1.8-0.3,2.7-0.5c0.9-0.2,1.8-0.5,2.6-0.8c0.9-0.3,1.7-0.7,2.6-1.1c0.8-0.4,1.7-0.8,2.5-1.3c0.8-0.5,1.6-1,2.4-1.5
				c0.8-0.5,1.5-1.1,2.3-1.7c0.7-0.6,1.5-1.3,2.1-1.9c2.8-2.7,5.1-5.9,7-9.5L431.2,166.9z"/>
		</g>
		<g>
			<path d="M391.6,146c-0.2,2.2-0.3,4.5-0.1,6.8c0.2,2.3,0.6,4.5,1.3,6.7c0.7,2.2,1.6,4.3,2.8,6.3c1.2,2,2.6,3.8,4.3,5.4l-4.1-0.4
				c1.4-1.2,2.8-2.3,4-3.5c0.6-0.6,1.2-1.2,1.8-1.9c0.6-0.6,1.2-1.3,1.7-2c2.2-2.7,4-5.7,5.6-9c0.7-1.6,1.4-3.3,2-5.1
				c0.6-1.8,1.1-3.6,1.7-5.4c0.5-1.9,1-3.8,1.4-5.7c0.5-2,0.9-4,1.4-6.1l0.2,0c1.1,1.9,1.8,3.9,2.3,6c0.5,2.1,0.9,4.2,1,6.4
				c0.1,1.1,0.1,2.2,0,3.3c0,1.1-0.1,2.2-0.3,3.3c-0.3,2.2-0.8,4.4-1.5,6.5c-1.4,4.3-3.6,8.4-6.7,11.9c-1.5,1.7-3.2,3.3-5.1,4.6
				c-1.9,1.3-3.9,2.4-6,3.2l-2.4,0.8l-1.7-1.3c-2.4-1.7-4.6-3.8-6.5-6.1c-1.9-2.3-3.5-4.9-4.8-7.6s-2.3-5.6-3-8.5
				c-0.7-2.9-1.1-5.9-1.3-9L391.6,146z"/>
		</g>
		<rect x="462.2" y="164.3" class="st6" width="0.6" height="0.6"/>
		<rect x="419.2" y="141.8" class="st6" width="39.7" height="25.9"/>
		<text transform="matrix(0.9945 0 0 1 419.1983 150.8553)" class="st7 st8">    WE</text>
		<text transform="matrix(0.9945 0 0 1 419.1983 150.8553)" class="st0 st7 st8">    WE</text>
		<text transform="matrix(0.9945 0 0 1 419.1983 164.7177)" class="st7 st8">Compare       </text>
		<text transform="matrix(0.9945 0 0 1 419.1983 164.7177)" class="st0 st7 st8">Compare       </text>
		<path d="M454,278.7"/>
		<g>
			<g>
				<path d="M445.3,114.5c0.4,0,0.4-0.6,0-0.6C444.9,114,444.9,114.5,445.3,114.5L445.3,114.5z"/>
			</g>
		</g>
		<g>
			<g>
				<path d="M445.3,114.5c0.4,0,0.4-0.6,0-0.6C444.9,114,444.9,114.5,445.3,114.5L445.3,114.5z"/>
			</g>
		</g>
		<g>
			<g>
				<path d="M445.3,114.5c0.4,0,0.4-0.6,0-0.6C444.9,114,444.9,114.5,445.3,114.5L445.3,114.5z"/>
			</g>
		</g>
		<g>
			<g>
				<path d="M467.1,87.6c0.4,0,0.4-0.6,0-0.6C466.8,87,466.8,87.6,467.1,87.6L467.1,87.6z"/>
			</g>
		</g>
		<g>
			<g>
				<path d="M448,110.7c0.4,0,0.4-0.6,0-0.6C447.6,110.1,447.6,110.7,448,110.7L448,110.7z"/>
			</g>
		</g>
		<g>
			<g>
				<path d="M445.8,112.3c0.4,0,0.4-0.6,0-0.6C445.4,111.8,445.4,112.3,445.8,112.3L445.8,112.3z"/>
			</g>
		</g>
	</g>
	<g id="Layer_2_2_">
	</g>
</g>
</svg>
