<?xml version="1.0" encoding="utf-8"?>
<!-- Generator: Adobe Illustrator 22.0.0, SVG Export Plug-In . SVG Version: 6.00 Build 0)  -->
<svg version="1.1" xmlns="http://www.w3.org/2000/svg" xmlns:xlink="http://www.w3.org/1999/xlink" x="0px" y="0px"
	 viewBox="0 0 505.1 441.5" style="enable-background:new 0 0 505.1 441.5;" xml:space="preserve">
<style type="text/css">
	.st0{fill:none;}
	.st1{stroke:#000000;stroke-miterlimit:10;}
	.st2{font-family:'BernardMT-Condensed';}
	.st3{font-size:60px;}
</style>
<g id="Layer_1">
	<g>
		<path d="M349.4,286.6c-5.4,20.4-14.5,40.1-27.2,57.7c-12.6,17.7-28.8,33.2-47.7,45.3c-18.9,12-40.5,20.4-63.2,23.9
			c-11.3,1.8-22.9,2.3-34.4,1.8c-5.8-0.3-11.6-0.9-17.3-1.7c-5.7-0.9-11.4-2.1-17.1-3.6c-11.3-3-22.2-7.1-32.7-12.3
			c-10.5-5.2-20.4-11.4-29.7-18.5c-18.6-14.1-34.4-31.7-46.9-51.3c-6.2-9.8-11.6-20.2-16.1-30.9c-4.5-10.7-8.2-21.8-10.9-33
			c-2.7-11.3-4.6-22.7-5.5-34.3C0.3,223.8,0,218,0,212.2c0-5.8,0.2-11.6,0.6-17.3c0.9-11.5,2.6-23,5.2-34.3
			c2.6-11.3,6.2-22.4,10.6-33.1c8.8-21.5,21.3-41.5,36.8-58.9c7.8-8.7,16.3-16.7,25.5-23.9c9.2-7.2,19.1-13.5,29.5-18.8
			c10.4-5.3,21.4-9.6,32.6-12.7c11.3-3.1,22.8-5.1,34.4-5.9C187,6.4,198.6,6.9,210,8.5c5.7,0.8,11.4,1.9,16.9,3.3
			c5.6,1.4,11.1,3.1,16.4,5c10.7,3.9,21,8.8,30.6,14.8c9.6,5.9,18.6,12.7,26.8,20.2c16.4,15.1,29.7,33,39.3,52.3
			c9.7,19.3,15.9,40.1,18.2,61l-1,0.2c-7-19.7-16.5-38.1-28.5-54.5c-6-8.1-12.5-15.8-19.6-22.8c-7.1-7-14.6-13.4-22.7-19
			c-16-11.3-33.7-19.4-52.1-24c-4.6-1.1-9.2-2-13.9-2.7c-4.6-0.7-9.3-1.2-14-1.4c-9.3-0.5-18.7,0-27.8,1.4
			c-9.1,1.3-18.1,3.5-26.8,6.6c-8.6,3.1-17,7-24.8,11.7c-7.9,4.6-15.4,10-22.3,16c-7,6-13.4,12.6-19.2,19.7
			c-11.7,14.2-21,30.4-27.7,47.6c-3.3,8.6-6,17.5-8,26.5c-1,4.5-1.8,9.1-2.5,13.7c-0.7,4.6-1.2,9.2-1.5,13.8
			c-0.6,9.3-0.6,18.6,0.1,27.8c0.7,9.3,2.1,18.4,4.1,27.5c2.1,9,4.8,17.9,8.1,26.5c3.4,8.6,7.4,16.9,12.1,24.9
			c9.3,15.9,21.2,30.3,35.2,42.3c14,12,30,21.5,47.4,27.6c8.7,3.1,17.7,5.3,26.9,6.7c4.6,0.7,9.2,1.1,13.9,1.3
			c2.3,0.1,4.7,0.2,7,0.1l3.5,0l3.5-0.1c4.7-0.2,9.4-0.7,14.1-1.3c4.7-0.8,9.3-1.6,14-2.8c4.7-1.1,9.2-2.5,13.8-4
			c4.5-1.7,9-3.4,13.4-5.5c4.4-2,8.7-4.3,13-6.6c4.2-2.5,8.4-5.1,12.4-7.9c4.1-2.8,8-5.8,11.9-9c3.8-3.2,7.6-6.6,11.1-10.1
			c14.4-14.1,26.7-30.8,36.8-49.1L349.4,286.6z"/>
	</g>
	<g>
		<path d="M142.5,177.9c-1.3,11.6-1.4,23.5-0.3,35.3c1,11.8,3.3,23.5,6.8,34.8c3.5,11.3,8.3,22.2,14.5,32.5
			c6.1,10.2,13.6,19.7,22.2,28.2l-21.4-2.1c7.4-6,14.5-11.9,21.1-18.2c3.3-3.2,6.5-6.4,9.6-9.8c3.1-3.3,6.1-6.7,8.9-10.3
			c11.5-14.1,21.1-29.7,29-46.8c3.9-8.5,7.3-17.4,10.5-26.5c3.1-9.1,6-18.6,8.7-28.2c2.7-9.7,5.1-19.6,7.5-29.8
			c2.4-10.2,4.5-20.7,7.1-31.7l1-0.1c5.6,9.9,9.3,20.5,12.1,31.4c2.8,10.9,4.5,22,5.2,33.4c0.3,5.7,0.4,11.4,0.2,17.1
			c-0.2,5.7-0.7,11.4-1.4,17.1c-1.5,11.4-4.1,22.8-7.8,34c-7.3,22.3-19,43.8-35,61.8c-7.9,9-16.9,17.1-26.7,24.1
			c-9.8,6.9-20.4,12.7-31.5,16.7l-12.4,4.4l-9.1-6.6c-12.5-9-23.9-19.8-33.8-31.8c-10-12-18.4-25.3-25.3-39.4
			c-6.9-14.1-12.1-28.9-15.9-44.2c-3.7-15.2-5.9-30.8-6.6-46.6L142.5,177.9z"/>
	</g>
	<rect x="511.3" y="272.9" class="st0" width="2.9" height="2.9"/>
	<rect x="286.6" y="155.8" class="st0" width="207.6" height="134.3"/>
	<text transform="matrix(1 0 0 1 286.5762 203.0655)"><tspan x="0" y="0" class="st1 st2 st3">    WE</tspan><tspan x="0" y="72" class="st1 st2 st3">Compare       </tspan></text>
	<path d="M468.4,867.2"/>
	<g>
		<g>
			<path d="M422.7,14.4c1.9,0,1.9-3,0-3C420.8,11.4,420.7,14.4,422.7,14.4L422.7,14.4z"/>
		</g>
	</g>
	<g>
		<g>
			<path d="M422.7,14.4c1.9,0,1.9-3,0-3C420.8,11.4,420.7,14.4,422.7,14.4L422.7,14.4z"/>
		</g>
	</g>
	<g>
		<g>
			<path d="M422.7,14.4c1.9,0,1.9-3,0-3C420.8,11.4,420.7,14.4,422.7,14.4L422.7,14.4z"/>
		</g>
	</g>
	<g>
		<g>
			<path d="M537-125.6c1.9,0,1.9-3,0-3C535-128.6,535-125.6,537-125.6L537-125.6z"/>
		</g>
	</g>
	<g>
		<g>
			<path d="M437-5.6c1.9,0,1.9-3,0-3C435-8.6,435-5.6,437-5.6L437-5.6z"/>
		</g>
	</g>
	<g>
		<g>
			<path d="M425.5,3c1.9,0,1.9-3,0-3C423.6,0,423.6,3,425.5,3L425.5,3z"/>
		</g>
	</g>
</g>
<g id="Layer_2">
</g>
</svg>
