<?xml version="1.0" encoding="utf-8"?>
<!-- Generator: Adobe Illustrator 22.0.0, SVG Export Plug-In . SVG Version: 6.00 Build 0)  -->
<svg version="1.1" id="Layer_1" xmlns="http://www.w3.org/2000/svg" xmlns:xlink="http://www.w3.org/1999/xlink" x="0px" y="0px"
	 viewBox="0 0 496 879.4" style="enable-background:new 0 0 496 879.4;" xml:space="preserve">
<style type="text/css">
	.st0{stroke:#000000;stroke-width:2;stroke-miterlimit:10;}
	.st1{fill:#FFFFFF;stroke:#000000;stroke-width:2;stroke-miterlimit:10;}
	.st2{fill:none;}
	.st3{font-family:'BernardMT-Condensed';}
	.st4{font-size:24.6177px;}
	.st5{fill:none;stroke:#000000;stroke-miterlimit:10;}
</style>
<path class="st0" d="M419.4,862.6H76.6c-29.9,0-54.3-24.4-54.3-54.3v-740C22.3,38.4,46.7,14,76.6,14h342.9
	c29.9,0,54.3,24.4,54.3,54.3v740C473.7,838.1,449.3,862.6,419.4,862.6z"/>
<path class="st1" d="M441.8,796.7H54.2c-7.9,0-14.3-6.4-14.3-14.3V57.3c0-7.9,6.4-14.3,14.3-14.3h387.5c7.9,0,14.3,6.4,14.3,14.3
	v725.1C456.1,790.3,449.7,796.7,441.8,796.7z"/>
<path class="st1" d="M280.1,846.8h-56.7c-6.6,0-12-5.4-12-12v-2.4c0-6.6,5.4-12,12-12h56.7c6.6,0,12,5.4,12,12v2.4
	C292.1,841.4,286.7,846.8,280.1,846.8z"/>
<rect x="196.3" y="14" class="st0" width="111" height="39.5"/>
<g>
	<g>
		<path d="M125.7,28.7c1.9,0,1.9-3,0-3C123.8,25.7,123.8,28.7,125.7,28.7L125.7,28.7z"/>
	</g>
</g>
<g>
	<g>
		<path d="M365.3,23.4c1.9,0,1.9-3,0-3C363.3,20.4,363.3,23.4,365.3,23.4L365.3,23.4z"/>
	</g>
</g>
<g>
	<g>
		<path d="M365.3,23.4c1.9,0,1.9-3,0-3C363.3,20.4,363.3,23.4,365.3,23.4L365.3,23.4z"/>
	</g>
</g>
<g>
	<g>
		<path d="M365.3,23.4c1.9,0,1.9-3,0-3C363.3,20.4,363.3,23.4,365.3,23.4L365.3,23.4z"/>
	</g>
</g>
<g>
	<g>
		<path d="M103,28.7c1.9,0,1.9-3,0-3C101.1,25.7,101.1,28.7,103,28.7L103,28.7z"/>
	</g>
</g>
<g>
	<g>
		<path d="M103,26c1.9,0,1.9-3,0-3C101.1,23,101.1,26,103,26L103,26z"/>
	</g>
</g>
<g>
	<g>
		<path d="M103,26c1.9,0,1.9-3,0-3C101.1,23,101.1,26,103,26L103,26z"/>
	</g>
</g>
<g>
	<g>
		<path d="M150.9,25.7c-17.7,0-35.3,0-53,0c-1.9,0-1.9,3,0,3c17.7,0,35.3,0,53,0C152.8,28.7,152.8,25.7,150.9,25.7L150.9,25.7z"/>
	</g>
</g>
<path d="M178.4,23.4c-4.2,1.7-8.4,3.5-12.6,5.2c-1.6,0.6-0.9,3.3,0.7,2.7c4.2-1.7,8.4-3.5,12.6-5.2C180.6,25.4,180,22.7,178.4,23.4z
	"/>
<g>
	<g id="Layer_1_2_">
		<g>
			<path d="M294.4,392.9c-1.9,8.4-5.1,16.5-9.5,23.7c-4.4,7.3-10.1,13.6-16.7,18.6c-6.6,4.9-14.1,8.4-22.1,9.8
				c-3.9,0.7-8,0.9-12,0.7c-2-0.1-4.1-0.4-6-0.7c-2-0.4-4-0.9-6-1.5c-3.9-1.2-7.8-2.9-11.4-5c-3.7-2.1-7.1-4.7-10.4-7.6
				c-6.5-5.8-12-13-16.4-21c-2.2-4-4.1-8.3-5.6-12.7c-1.6-4.4-2.9-8.9-3.8-13.5c-0.9-4.6-1.6-9.3-1.9-14.1c-0.1-2.4-0.2-4.8-0.2-7.2
				c0-2.4,0.1-4.8,0.2-7.1c0.3-4.7,0.9-9.4,1.8-14.1s2.2-9.2,3.7-13.6c3.1-8.8,7.4-17,12.9-24.2c2.7-3.6,5.7-6.9,8.9-9.8
				c3.2-3,6.7-5.5,10.3-7.7s7.5-3.9,11.4-5.2c3.9-1.3,8-2.1,12-2.4c4.1-0.4,8.2-0.2,12.2,0.5c2,0.3,4,0.8,5.9,1.4
				c2,0.6,3.9,1.3,5.7,2.1c3.7,1.6,7.3,3.6,10.7,6.1c3.4,2.4,6.5,5.2,9.4,8.3c5.7,6.2,10.4,13.5,13.7,21.5c3.4,7.9,5.6,16.5,6.4,25
				l-0.3,0.1c-2.4-8.1-5.8-15.6-10-22.4c-2.1-3.3-4.4-6.5-6.8-9.4c-2.5-2.9-5.1-5.5-7.9-7.8c-5.6-4.6-11.8-8-18.2-9.8
				c-1.6-0.5-3.2-0.8-4.9-1.1c-1.6-0.3-3.2-0.5-4.9-0.6c-3.2-0.2-6.5,0-9.7,0.6c-3.2,0.5-6.3,1.4-9.4,2.7c-3,1.3-5.9,2.9-8.7,4.8
				c-2.8,1.9-5.4,4.1-7.8,6.6c-2.4,2.5-4.7,5.2-6.7,8.1c-4.1,5.8-7.3,12.5-9.7,19.5c-1.2,3.5-2.1,7.2-2.8,10.9
				c-0.3,1.8-0.6,3.7-0.9,5.6c-0.2,1.9-0.4,3.8-0.5,5.7c-0.2,3.8-0.2,7.6,0,11.4c0.2,3.8,0.7,7.5,1.4,11.3c0.7,3.7,1.7,7.3,2.8,10.9
				c1.2,3.5,2.6,6.9,4.2,10.2c3.2,6.5,7.4,12.4,12.3,17.4c4.9,4.9,10.5,8.8,16.6,11.3c3,1.3,6.2,2.2,9.4,2.7
				c1.6,0.3,3.2,0.5,4.9,0.5c0.8,0,1.6,0.1,2.4,0h1.2l1.2,0c1.6-0.1,3.3-0.3,4.9-0.5c1.6-0.3,3.2-0.7,4.9-1.1c1.6-0.5,3.2-1,4.8-1.6
				c1.6-0.7,3.1-1.4,4.7-2.3c1.5-0.8,3-1.8,4.5-2.7c1.5-1,2.9-2.1,4.3-3.2c1.4-1.1,2.8-2.4,4.2-3.7c1.3-1.3,2.7-2.7,3.9-4.1
				c5-5.8,9.3-12.6,12.9-20.1L294.4,392.9z"/>
		</g>
		<g>
			<path d="M222.2,348.3c-0.5,4.8-0.5,9.6-0.1,14.5c0.3,4.8,1.2,9.6,2.4,14.3c1.2,4.6,2.9,9.1,5.1,13.3c2.1,4.2,4.7,8.1,7.8,11.6
				l-7.5-0.9c2.6-2.5,5.1-4.9,7.4-7.5c1.2-1.3,2.3-2.6,3.4-4c1.1-1.4,2.1-2.7,3.1-4.2c4-5.8,7.4-12.2,10.1-19.2
				c1.4-3.5,2.5-7.1,3.7-10.9c1.1-3.7,2.1-7.6,3-11.6c0.9-4,1.8-8,2.6-12.2c0.8-4.2,1.6-8.5,2.5-13l0.3,0c2,4.1,3.2,8.4,4.2,12.9
				c1,4.5,1.6,9,1.8,13.7c0.1,2.3,0.1,4.7,0.1,7c-0.1,2.3-0.2,4.7-0.5,7c-0.5,4.7-1.4,9.4-2.7,14c-2.5,9.1-6.6,18-12.2,25.4
				c-2.8,3.7-5.9,7-9.3,9.9c-3.4,2.8-7.1,5.2-11,6.9l-4.3,1.8l-3.2-2.7c-4.4-3.7-8.3-8.1-11.8-13c-3.5-4.9-6.4-10.4-8.8-16.2
				s-4.2-11.9-5.6-18.1c-1.3-6.2-2.1-12.6-2.3-19.1L222.2,348.3z"/>
		</g>
		<rect x="351" y="387.3" class="st2" width="1" height="1.2"/>
		<rect x="272.5" y="339.3" class="st2" width="72.5" height="55.1"/>
		<text transform="matrix(0.8511 0 0 1 272.4806 358.6516)" class="st3 st4">    WE</text>
		<text transform="matrix(0.8511 0 0 1 272.4806 358.6516)" class="st5 st3 st4">    WE</text>
		<text transform="matrix(0.8511 0 0 1 272.4806 388.1931)" class="st3 st4">Compare       </text>
		<text transform="matrix(0.8511 0 0 1 272.4806 388.1931)" class="st5 st3 st4">Compare       </text>
		<path d="M336,631.1"/>
		<g>
			<g>
				<path d="M320,281.2c0.7,0,0.7-1.2,0-1.2S319.3,281.2,320,281.2L320,281.2z"/>
			</g>
		</g>
		<g>
			<g>
				<path d="M320,281.2c0.7,0,0.7-1.2,0-1.2S319.3,281.2,320,281.2L320,281.2z"/>
			</g>
		</g>
		<g>
			<g>
				<path d="M320,281.2c0.7,0,0.7-1.2,0-1.2S319.3,281.2,320,281.2L320,281.2z"/>
			</g>
		</g>
		<g>
			<g>
				<path d="M359.9,223.8c0.7,0,0.7-1.2,0-1.2C359.2,222.6,359.2,223.8,359.9,223.8L359.9,223.8z"/>
			</g>
		</g>
		<g>
			<g>
				<path d="M325,273c0.7,0,0.7-1.2,0-1.2C324.3,271.8,324.3,273,325,273L325,273z"/>
			</g>
		</g>
		<g>
			<g>
				<path d="M321,276.6c0.7,0,0.7-1.2,0-1.2C320.3,275.3,320.3,276.6,321,276.6L321,276.6z"/>
			</g>
		</g>
	</g>
	<g id="Layer_2_2_">
	</g>
</g>
</svg>
