<?xml version="1.0" encoding="utf-8"?>
<!-- Generator: Adobe Illustrator 22.0.0, SVG Export Plug-In . SVG Version: 6.00 Build 0)  -->
<svg version="1.1" id="Layer_1" xmlns="http://www.w3.org/2000/svg" xmlns:xlink="http://www.w3.org/1999/xlink" x="0px" y="0px"
	 viewBox="0 0 331 636.3" style="enable-background:new 0 0 331 636.3;" xml:space="preserve">
<style type="text/css">
	.st0{stroke:#000000;stroke-miterlimit:10;}
	.st1{fill:#FFFFFF;stroke:#000000;stroke-width:2;stroke-miterlimit:10;}
	.st2{fill:none;}
	.st3{font-family:'BernardMT-Condensed';}
	.st4{font-size:25.0676px;}
	.st5{fill:none;stroke:#000000;stroke-miterlimit:10;}
	.st6{fill:#FFFFFF;stroke:#000000;stroke-miterlimit:10;}
	.st7{fill:none;stroke:#000000;stroke-width:2;stroke-miterlimit:10;}
</style>
<g>
	<path class="st0" d="M327.1,16.1c-0.6-2-0.9-4-1.1-6c-0.5-0.7-0.9-1.4-1.4-2.1c-2.5,0.9-5.4,0-6.1-3.3c-0.2-1.3-0.5-2.7-0.5-4.2
		H0.5v642.9h328.6V18.7C328.1,18.1,327.4,17.2,327.1,16.1z M183.4,16.9c-6.4,0-6.4-10,0-10C189.8,6.9,189.8,16.9,183.4,16.9z
		 M200.5,16.9c-6.4,0-6.4-10,0-10C206.9,6.9,206.9,16.9,200.5,16.9z"/>
	<path class="st1" d="M311.9,11.9H205.3c0,2.5-1.6,5-4.8,5c-3.2,0-4.8-2.5-4.8-5h-7.5c0,2.5-1.6,5-4.8,5c-3.2,0-4.8-2.5-4.8-5H14.8
		v25.7v548.6c92.4,0,184.8,0,277.2,0c6.7,0,13.3,0,20,0c0-11.4,0-22.7,0-34.1C311.9,372.1,311.9,192,311.9,11.9z"/>
	<g>
		<g id="Layer_1_2_">
			<g>
				<path d="M229.1,311.5c-2.4,8.5-6.5,16.8-12.2,24.1c-5.7,7.4-12.9,13.9-21.4,18.9c-8.5,5-18.2,8.5-28.4,10
					c-5.1,0.8-10.3,1-15.4,0.8c-2.6-0.1-5.2-0.4-7.8-0.7c-2.6-0.4-5.1-0.9-7.7-1.5c-5.1-1.3-10-3-14.7-5.1
					c-4.7-2.2-9.2-4.8-13.3-7.7c-8.4-5.9-15.4-13.2-21.1-21.4c-2.8-4.1-5.2-8.4-7.2-12.9c-2-4.5-3.7-9.1-4.9-13.8
					c-1.2-4.7-2.1-9.5-2.5-14.3c-0.2-2.5-0.3-4.9-0.3-7.3c0-2.4,0.1-4.8,0.3-7.2c0.4-4.8,1.2-9.6,2.3-14.3c1.2-4.7,2.8-9.4,4.8-13.8
					c4-9,9.6-17.3,16.5-24.6c3.5-3.6,7.3-7,11.5-10c4.1-3,8.6-5.6,13.2-7.9c4.7-2.2,9.6-4,14.6-5.3c5.1-1.3,10.2-2.1,15.4-2.5
					c5.3-0.4,10.5-0.2,15.6,0.5c2.6,0.3,5.1,0.8,7.6,1.4c2.5,0.6,5,1.3,7.4,2.1c4.8,1.6,9.4,3.7,13.7,6.2c4.3,2.5,8.4,5.3,12,8.4
					c7.4,6.3,13.3,13.8,17.6,21.9c4.4,8.1,7.1,16.8,8.2,25.5l-0.4,0.1c-3.1-8.2-7.4-15.9-12.8-22.8c-2.7-3.4-5.6-6.6-8.8-9.5
					c-3.2-2.9-6.6-5.6-10.2-7.9c-7.2-4.7-15.1-8.1-23.4-10c-2.1-0.5-4.1-0.8-6.2-1.1c-2.1-0.3-4.2-0.5-6.3-0.6
					c-4.2-0.2-8.4,0-12.5,0.6c-4.1,0.5-8.1,1.5-12,2.8c-3.9,1.3-7.6,2.9-11.1,4.9c-3.5,1.9-6.9,4.2-10,6.7c-3.1,2.5-6,5.3-8.6,8.2
					c-5.3,5.9-9.4,12.7-12.4,19.9c-1.5,3.6-2.7,7.3-3.6,11.1c-0.4,1.9-0.8,3.8-1.1,5.7c-0.3,1.9-0.5,3.8-0.7,5.8
					c-0.3,3.9-0.3,7.8,0,11.6c0.3,3.9,0.9,7.7,1.8,11.5c0.9,3.8,2.2,7.5,3.6,11.1c1.5,3.6,3.3,7.1,5.4,10.4
					c4.2,6.6,9.5,12.7,15.8,17.7s13.5,9,21.3,11.5c3.9,1.3,7.9,2.2,12.1,2.8c2.1,0.3,4.1,0.5,6.2,0.5c1,0,2.1,0.1,3.1,0h1.6l1.6,0
					c2.1-0.1,4.2-0.3,6.3-0.5c2.1-0.3,4.2-0.7,6.3-1.2c2.1-0.5,4.1-1,6.2-1.7c2-0.7,4-1.4,6-2.3c2-0.8,3.9-1.8,5.8-2.8
					c1.9-1,3.8-2.1,5.6-3.3c1.8-1.2,3.6-2.4,5.3-3.8c1.7-1.3,3.4-2.8,5-4.2c6.5-5.9,12-12.9,16.5-20.5L229.1,311.5z"/>
			</g>
			<g>
				<path d="M136.1,266.1c-0.6,4.8-0.6,9.8-0.1,14.7c0.4,4.9,1.5,9.8,3.1,14.5c1.6,4.7,3.7,9.3,6.5,13.6c2.7,4.3,6.1,8.2,10,11.8
					l-9.6-0.9c3.3-2.5,6.5-5,9.5-7.6c1.5-1.3,2.9-2.7,4.3-4.1c1.4-1.4,2.7-2.8,4-4.3c5.2-5.9,9.5-12.4,13-19.6
					c1.8-3.6,3.3-7.3,4.7-11.1c1.4-3.8,2.7-7.8,3.9-11.8c1.2-4.1,2.3-8.2,3.4-12.5c1.1-4.3,2-8.6,3.2-13.2l0.4,0
					c2.5,4.1,4.2,8.6,5.4,13.1c1.3,4.6,2,9.2,2.3,14c0.1,2.4,0.2,4.8,0.1,7.1c-0.1,2.4-0.3,4.8-0.6,7.1c-0.7,4.8-1.8,9.5-3.5,14.2
					c-3.3,9.3-8.5,18.3-15.7,25.8c-3.5,3.8-7.6,7.1-12,10.1c-4.4,2.9-9.2,5.3-14.1,7l-5.6,1.8l-4.1-2.8c-5.6-3.8-10.7-8.3-15.2-13.3
					c-4.5-5-8.3-10.6-11.4-16.5c-3.1-5.9-5.4-12.1-7.1-18.5c-1.7-6.4-2.6-12.9-3-19.5L136.1,266.1z"/>
			</g>
			<rect x="301.8" y="305.8" class="st2" width="1.3" height="1.2"/>
			<rect x="200.9" y="256.9" class="st2" width="93.2" height="56.1"/>
			<text transform="matrix(1.0748 0 0 1 200.8407 276.6112)" class="st3 st4">    WE</text>
			<text transform="matrix(1.0748 0 0 1 200.8407 276.6112)" class="st5 st3 st4">    WE</text>
			<text transform="matrix(1.0748 0 0 1 200.8407 306.6927)" class="st3 st4">Compare       </text>
			<text transform="matrix(1.0748 0 0 1 200.8407 306.6927)" class="st5 st3 st4">Compare       </text>
			<path d="M282.5,554.1"/>
			<g>
				<g>
					<path d="M262,197.8c0.9,0,0.9-1.3,0-1.3C261.1,196.5,261.1,197.8,262,197.8L262,197.8z"/>
				</g>
			</g>
			<g>
				<g>
					<path d="M262,197.8c0.9,0,0.9-1.3,0-1.3C261.1,196.5,261.1,197.8,262,197.8L262,197.8z"/>
				</g>
			</g>
			<g>
				<g>
					<path d="M262,197.8c0.9,0,0.9-1.3,0-1.3C261.1,196.5,261.1,197.8,262,197.8L262,197.8z"/>
				</g>
			</g>
			<g>
				<g>
					<path d="M313.3,139.3c0.9,0,0.9-1.3,0-1.3C312.4,138,312.4,139.3,313.3,139.3L313.3,139.3z"/>
				</g>
			</g>
			<g>
				<g>
					<path d="M268.4,189.4c0.9,0,0.9-1.3,0-1.3C267.5,188.2,267.5,189.4,268.4,189.4L268.4,189.4z"/>
				</g>
			</g>
			<g>
				<g>
					<path d="M263.2,193c0.9,0,0.9-1.3,0-1.3S262.4,193,263.2,193L263.2,193z"/>
				</g>
			</g>
		</g>
		<g id="Layer_2_2_">
		</g>
	</g>
	<ellipse class="st6" cx="164.8" cy="613.4" rx="27.1" ry="10"/>
	<path class="st0" d="M205.3,11.9c0,2.5-1.6,5-4.8,5c-3.2,0-4.8-2.5-4.8-5h-7.5c0,2.5-1.6,5-4.8,5c-3.2,0-4.8-2.5-4.8-5h-77.7v11.4
		h125.1V11.9H205.3z"/>
	<path class="st1" d="M391.9,471.9"/>
	<path class="st7" d="M34.8,586.2c0,0-8.9,0-20,0"/>
</g>
</svg>
